<svg width="35" height="35" viewBox="0 0 35 35" fill="none" xmlns="http://www.w3.org/2000/svg">
<g clip-path="url(#clip0)">
<path d="M34.576 10.7408L17.8396 0.0906574C17.6496 -0.0302191 17.407 -0.0302191 17.2171 0.0906574L0.483476 10.7408C0.215114 10.9115 0.134435 11.2668 0.302586 11.5368L1.38566 13.2761C1.46719 13.4072 1.59769 13.5 1.74801 13.5346C1.89861 13.5691 2.05629 13.5422 2.18679 13.4598L3.03462 12.9242V34.4204C3.03462 34.7406 3.29421 35.0002 3.61438 35.0002H31.4426C31.7627 35.0002 32.0223 34.7406 32.0223 34.4204V12.9242L32.8727 13.4598C33.0032 13.5422 33.1612 13.5691 33.3115 13.5346C33.4618 13.5 33.5923 13.4072 33.6738 13.2761L34.7569 11.5368C34.9253 11.2668 34.8447 10.9115 34.576 10.7408ZM12.8904 33.8407H7.0929V18.7671H12.8904V33.8407ZM30.8628 33.8407H14.05V18.1873C14.05 17.8671 13.7904 17.6076 13.4702 17.6076H6.51315C6.19298 17.6076 5.93339 17.8671 5.93339 18.1873V33.8407H4.19413V12.1942L4.80446 11.81H30.2522L30.8628 12.1942V33.8407ZM6.64648 10.6505L17.5285 3.79876L28.4105 10.6505H6.64648ZM32.9973 12.1681L17.8373 2.62312C17.6485 2.50422 17.4082 2.50422 17.2193 2.62312L2.0594 12.1681L1.58524 11.4112L17.5285 1.26658L33.4717 11.4123L32.9973 12.1681Z" fill="#009DE1"/>
<path d="M28.5453 25.724V18.1872C28.5453 17.867 28.2857 17.6074 27.9655 17.6074H16.3704C16.0503 17.6074 15.7907 17.867 15.7907 18.1872V25.724C15.4705 25.724 15.2109 25.9836 15.2109 26.3037V28.043C15.2109 28.3632 15.4705 28.6228 15.7907 28.6228H28.5453C28.8654 28.6228 29.125 28.3632 29.125 28.043V26.3037C29.125 25.9836 28.8654 25.724 28.5453 25.724ZM16.9502 22.8252H18.2521L19.0801 25.724H16.9502V22.8252ZM20.286 25.724L19.2924 22.2455L20.286 18.7669H21.5882V25.724H20.286ZM22.7477 18.7669H24.0496L25.0435 22.2455L24.0496 25.724H22.7477V18.7669ZM26.0836 22.8252H27.3858V25.724H25.2556L26.0836 22.8252ZM27.3858 21.6657H26.0836L25.2556 18.7669H27.3858V21.6657ZM19.0801 18.7669L18.2521 21.6657H16.9502V18.7669H19.0801ZM27.9655 27.4632H16.3704V26.8835H27.9655V27.4632Z" fill="#009DE1"/>
<path d="M11.1523 25.7241H12.3119V26.8836H11.1523V25.7241Z" fill="#009DE1"/>
</g>
<defs>
<clipPath id="clip0">
<rect width="35" height="35" fill="white"/>
</clipPath>
</defs>
</svg>
