<svg width="28" height="28" viewBox="0 0 28 28" fill="none" xmlns="http://www.w3.org/2000/svg">
<circle cx="14" cy="14" r="14" fill="#7C519B"/>
<path d="M14.1098 8C13.7173 8 13.7173 8.61168 14.1098 8.61677C17.1549 8.64022 19.6628 10.7627 19.6903 14.6561C19.6903 15.0669 20.2918 15.0618 20.2867 14.651H20.2857C20.2531 10.4559 17.5148 8.02345 14.1098 8Z" fill="white"/>
<path d="M18.1156 14.0105C18.1064 14.4163 18.7069 14.4357 18.712 14.0248C18.7619 11.7117 17.3357 9.80629 14.6555 9.60545C14.2631 9.57691 14.2223 10.1937 14.6137 10.2222C16.9381 10.3986 18.1625 11.9849 18.1156 14.0105Z" fill="white"/>
<path d="M17.4725 16.6414C16.9689 16.3498 16.4561 16.5313 16.2441 16.8178L15.8006 17.3917C15.5753 17.6833 15.1543 17.6446 15.1543 17.6446C12.0816 16.832 11.26 13.6167 11.26 13.6167C11.26 13.6167 11.2222 13.1814 11.5036 12.9479L12.0582 12.4891C12.3355 12.2689 12.5108 11.7388 12.2284 11.2179C11.474 9.85485 10.9674 9.38488 10.7094 9.02399C10.4383 8.68451 10.0305 8.60805 9.60639 8.83743H9.59721C8.71538 9.35328 7.74995 10.3187 8.05884 11.3127C8.58591 12.3607 9.55439 15.7015 12.6413 18.2256C14.092 19.4194 16.3878 20.6428 17.3624 20.9252L17.3716 20.9394C18.3319 21.2596 19.2658 20.2564 19.7643 19.3481V19.3409C19.9855 18.9015 19.9121 18.4856 19.5889 18.2134C19.016 17.6547 18.1515 17.038 17.4725 16.6414Z" fill="white"/>
<path d="M15.0751 11.8811C16.0548 11.9382 16.5299 12.45 16.5808 13.501C16.5992 13.9119 17.1956 13.8833 17.1772 13.4725C17.112 12.1003 16.3963 11.3357 15.1077 11.2643C14.7152 11.2409 14.6785 11.8577 15.0751 11.8811Z" fill="white"/>
</svg>
