<svg width="39" height="37" viewBox="0 0 39 37" fill="none" xmlns="http://www.w3.org/2000/svg">
<path d="M35.75 35.7667V32.5736C36.9982 32.0742 37.7795 30.883 37.7 29.6C37.7 27.8999 36.5339 26.5167 35.1 26.5167C33.6661 26.5167 32.5 27.8999 32.5 29.6C32.4205 30.883 33.2018 32.0742 34.45 32.5736V35.7667H31.2V16.65C31.2001 16.4163 31.0609 16.2025 30.8405 16.0981L26 13.8022V10.4833C26.0002 10.2079 25.8078 9.9658 25.5287 9.8901L16.9 7.55108V0.616667C16.9 0.276112 16.609 0 16.25 0H3.25C2.89104 0 2.6 0.276112 2.6 0.616667V35.7667H0V37H39V35.7667H35.75ZM33.8 29.6C33.8 28.5973 34.3954 27.75 35.1 27.75C35.8046 27.75 36.4 28.5973 36.4 29.6C36.421 30.1904 36.1861 30.7632 35.75 31.1848V30.2167H34.45V31.1848C34.0134 30.7634 33.7785 30.1905 33.8 29.6ZM3.9 34.5333H9.75V33.3H3.9V30.8333H9.75V29.6H3.9V27.1333H9.75V25.9H3.9V23.4333H9.75V22.2H3.9V19.7333H9.75V18.5H3.9V16.0333H9.75V14.8H3.9V12.3333H9.75V11.1H3.9V8.63333H9.75V7.4H3.9V4.93333H9.75V3.7H3.9V1.23333H15.6V35.7667H3.9V34.5333ZM16.9 34.5333H21.45V33.3H16.9V30.8333H21.45V29.6H16.9V27.1333H21.45V25.9H16.9V23.4333H21.45V22.2H16.9V19.7333H21.45V18.5H16.9V16.0333H21.45V14.8H16.9V12.3333H21.45V11.1H16.9V8.83437L24.7 10.9483V35.7667H16.9V34.5333ZM26 35.7667V34.5333H27.95V33.3H26V30.8333H27.95V29.6H26V27.1333H27.95V25.9H26V23.4333H27.95V22.2H26V19.7333H27.95V18.5H26V15.1811L29.9 17.0311V35.7667H26Z" fill="#009DE1"/>
</svg>
