<svg width="39" height="33" viewBox="0 0 39 33" fill="none" xmlns="http://www.w3.org/2000/svg">
<path d="M38.35 18.8181H37.7V16.9362C37.6983 15.6906 36.933 14.5641 35.75 14.0659V4.39088C35.7498 4.14162 35.5968 3.91604 35.36 3.8163C35.6136 3.4241 35.7486 2.97137 35.75 2.50907C35.75 1.12336 34.5859 0 33.15 0C31.7141 0 30.55 1.12336 30.55 2.50907C30.5527 2.95083 30.6775 3.38388 30.9114 3.76361H8.0886C8.32252 3.38388 8.44732 2.95083 8.45 2.50907C8.45 1.12336 7.28593 0 5.85 0C4.41407 0 3.25 1.12336 3.25 2.50907C3.25138 2.97137 3.38642 3.4241 3.64 3.8163C3.40324 3.91604 3.25016 4.14162 3.25 4.39088V14.0659C2.067 14.5641 1.30171 15.6906 1.3 16.9362V18.8181H0.65C0.291037 18.8181 0 19.0989 0 19.4453V28.2271C0 28.5735 0.291037 28.8543 0.65 28.8543H1.3V31.9907C1.3 32.3371 1.59104 32.618 1.95 32.618H4.55C4.90896 32.618 5.2 32.3371 5.2 31.9907V28.8543H33.8V31.9907C33.8 32.3371 34.091 32.618 34.45 32.618H37.05C37.409 32.618 37.7 32.3371 37.7 31.9907V28.8543H38.35C38.709 28.8543 39 28.5735 39 28.2271V19.4453C39 19.0989 38.709 18.8181 38.35 18.8181ZM33.15 1.25454C33.868 1.25454 34.45 1.81618 34.45 2.50907C34.45 3.20197 33.868 3.76361 33.15 3.76361C32.432 3.76361 31.85 3.20197 31.85 2.50907C31.85 1.81618 32.432 1.25454 33.15 1.25454ZM5.85 1.25454C6.56801 1.25454 7.15 1.81618 7.15 2.50907C7.15 3.20197 6.56801 3.76361 5.85 3.76361C5.13199 3.76361 4.55 3.20197 4.55 2.50907C4.55 1.81618 5.13199 1.25454 5.85 1.25454ZM4.55 5.01815H34.45V13.7999H31.8331C32.2632 13.2602 32.4976 12.599 32.5 11.9181V10.6636C32.4979 8.9323 31.044 7.52926 29.25 7.52722H24.05C22.256 7.52926 20.8021 8.9323 20.8 10.6636V11.9181C20.8024 12.599 21.0368 13.2602 21.4669 13.7999H17.5331C17.9632 13.2602 18.1976 12.599 18.2 11.9181V10.6636C18.1979 8.9323 16.744 7.52926 14.95 7.52722H9.75C7.956 7.52926 6.50211 8.9323 6.5 10.6636V11.9181C6.50236 12.599 6.73676 13.2602 7.1669 13.7999H4.55V5.01815ZM31.2 10.6636V11.9181C31.2 12.9574 30.327 13.7999 29.25 13.7999H24.05C22.973 13.7999 22.1 12.9574 22.1 11.9181V10.6636C22.1 9.62426 22.973 8.78176 24.05 8.78176H29.25C30.327 8.78176 31.2 9.62426 31.2 10.6636ZM16.9 10.6636V11.9181C16.9 12.9574 16.027 13.7999 14.95 13.7999H9.75C8.67303 13.7999 7.8 12.9574 7.8 11.9181V10.6636C7.8 9.62426 8.67303 8.78176 9.75 8.78176H14.95C16.027 8.78176 16.9 9.62426 16.9 10.6636ZM2.6 16.9362C2.6 15.8969 3.47303 15.0544 4.55 15.0544H34.45C35.527 15.0544 36.4 15.8969 36.4 16.9362V18.8181H2.6V16.9362ZM3.9 31.3634H2.6V28.8543H3.9V31.3634ZM36.4 31.3634H35.1V28.8543H36.4V31.3634ZM37.7 27.5998H1.3V20.0726H37.7V27.5998Z" fill="#009DE1"/>
<path d="M3.25157 26.3453H5.85158C6.21054 26.3453 6.50158 26.0645 6.50158 25.7181C6.50158 25.3717 6.21054 25.0908 5.85158 25.0908H3.25157C2.8926 25.0908 2.60156 25.3717 2.60156 25.7181C2.60156 26.0645 2.8926 26.3453 3.25157 26.3453Z" fill="#009DE1"/>
<path d="M8.45078 26.3453H35.7508C36.1098 26.3453 36.4008 26.0645 36.4008 25.7181C36.4008 25.3717 36.1098 25.0908 35.7508 25.0908H8.45078C8.09182 25.0908 7.80078 25.3717 7.80078 25.7181C7.80078 26.0645 8.09182 26.3453 8.45078 26.3453Z" fill="#009DE1"/>
</svg>
