<svg width="40" height="39" viewBox="0 0 40 39" fill="none" xmlns="http://www.w3.org/2000/svg">
<path d="M14.668 14.1538H25.3347V15.4406H14.668V14.1538Z" fill="#009DE1"/>
<path d="M14.668 18.0137H25.3347V19.3004H14.668V18.0137Z" fill="#009DE1"/>
<path d="M14.668 21.874H25.3347V23.1607H14.668V21.874Z" fill="#009DE1"/>
<path d="M38 37.3144V15.4405H38.6667C39.0348 15.4405 39.3333 15.1524 39.3333 14.7971V12.2237C39.3333 11.8684 39.0348 11.5803 38.6667 11.5803H30V7.72023H31.3333C31.7015 7.72023 32 7.43216 32 7.07687V4.50346C32 4.14817 31.7015 3.86011 31.3333 3.86011H30V0.643352C30 0.288061 29.7015 0 29.3333 0H10.6667C10.2985 0 10 0.288061 10 0.643352V3.86011H8.66667C8.2985 3.86011 8 4.14817 8 4.50346V7.07687C8 7.43216 8.2985 7.72023 8.66667 7.72023H10V11.5803H1.33333C0.965167 11.5803 0.666667 11.8684 0.666667 12.2237V14.7971C0.666667 15.1524 0.965167 15.4405 1.33333 15.4405H2V37.3144H0V38.6011H40V37.3144H38ZM38 12.867V14.1537H30V12.867H38ZM11.3333 1.2867H28.6667V3.86011H11.3333V1.2867ZM9.33333 5.14682H30.6667V6.43352H9.33333V5.14682ZM2 12.867H10V14.1537H2V12.867ZM3.33333 34.741H7.33333V33.4543H3.33333V30.8809H7.33333V29.5942H3.33333V27.0208H7.33333V25.7341H3.33333V23.1607H7.33333V21.874H3.33333V19.3006H7.33333V18.0139H3.33333V15.4405H10V37.3144H3.33333V34.741ZM11.3333 7.72023H28.6667V37.3144H25.3333V26.3774C25.3333 26.0221 25.0348 25.7341 24.6667 25.7341H15.3333C14.9652 25.7341 14.6667 26.0221 14.6667 26.3774V37.3144H11.3333V7.72023ZM16 27.0208H19.3333V37.3144H16V27.0208ZM20.6667 37.3144V27.0208H24V37.3144H20.6667ZM30 37.3144V15.4405H36.6667V18.0139H32.6667V19.3006H36.6667V21.874H32.6667V23.1607H36.6667V25.7341H32.6667V27.0208H36.6667V29.5942H32.6667V30.8809H36.6667V33.4543H32.6667V34.741H36.6667V37.3144H30Z" fill="#009DE1"/>
</svg>
