<svg width="36" height="36" viewBox="0 0 36 36" fill="none" xmlns="http://www.w3.org/2000/svg">
<path d="M35.4 0H0.6C0.268652 0 0 0.268652 0 0.6V5.4C0 5.73135 0.268652 6 0.6 6V35.4C0.6 35.7313 0.868652 36 1.2 36H3.6C3.93135 36 4.2 35.7313 4.2 35.4V18H31.8V35.4C31.8 35.7313 32.0687 36 32.4 36H34.8C35.1313 36 35.4 35.7313 35.4 35.4V6C35.7313 6 36 5.73135 36 5.4V0.6C36 0.268652 35.7313 0 35.4 0ZM1.2 1.2H34.8V4.8H1.2V1.2ZM1.8 34.8V8.4H3V34.8H1.8ZM4.2 13.2H31.8V14.4H4.2V13.2ZM4.2 12V10.8H31.8V12H4.2ZM4.2 9.6V8.4H31.8V9.6H4.2ZM4.2 16.8V15.6H31.8V16.8H4.2ZM33 34.8V8.4H34.2V34.8H33ZM34.2 7.2H1.8V6H34.2V7.2Z" fill="#009DE1"/>
<path d="M27.6016 24.0002C28.5956 24.0002 29.4016 23.1942 29.4016 22.2002C29.4016 21.2062 28.5956 20.4002 27.6016 20.4002H26.8911C26.6377 19.6836 25.9615 19.2034 25.2016 19.2002H10.8016C10.0416 19.2034 9.36543 19.6836 9.11201 20.4002H8.40156C7.40752 20.4002 6.60156 21.2062 6.60156 22.2002C6.60156 23.1942 7.40752 24.0002 8.40156 24.0002H9.00156V26.4002H8.40156C7.40752 26.4002 6.60156 27.2062 6.60156 28.2002V31.8002C6.60156 32.7942 7.40752 33.6002 8.40156 33.6002H9.00156V34.2002C9.00156 35.1942 9.80752 36.0002 10.8016 36.0002C11.7956 36.0002 12.6016 35.1942 12.6016 34.2002V33.6002H22.8016V34.2002C22.8016 35.1942 23.6075 36.0002 24.6016 36.0002C25.5956 36.0002 26.4016 35.1942 26.4016 34.2002V33.6002H27.6016C28.5956 33.6002 29.4016 32.7942 29.4016 31.8002V28.2002C29.4016 27.2062 28.5956 26.4002 27.6016 26.4002H27.0016V24.0002H27.6016ZM28.2016 22.2002C28.2016 22.5315 27.9329 22.8002 27.6016 22.8002H27.0016V21.6002H27.6016C27.9329 21.6002 28.2016 21.8688 28.2016 22.2002ZM8.40156 22.8002C8.07021 22.8002 7.80156 22.5315 7.80156 22.2002C7.80156 21.8688 8.07021 21.6002 8.40156 21.6002H9.00156V22.8002H8.40156ZM11.4016 34.2002C11.4016 34.5315 11.1329 34.8002 10.8016 34.8002C10.4702 34.8002 10.2016 34.5315 10.2016 34.2002V33.6002H11.4016V34.2002ZM25.2016 34.2002C25.2016 34.5315 24.9329 34.8002 24.6016 34.8002C24.2702 34.8002 24.0016 34.5315 24.0016 34.2002V33.6002H25.2016V34.2002ZM28.2016 28.2002V31.8002C28.2016 32.1315 27.9329 32.4002 27.6016 32.4002H8.40156C8.07021 32.4002 7.80156 32.1315 7.80156 31.8002V28.2002C7.80156 27.8688 8.07021 27.6002 8.40156 27.6002H27.6016C27.9329 27.6002 28.2016 27.8688 28.2016 28.2002ZM10.2016 26.4002V21.0002C10.2016 20.6688 10.4702 20.4002 10.8016 20.4002H25.2016C25.5329 20.4002 25.8016 20.6688 25.8016 21.0002V26.4002H10.2016Z" fill="#009DE1"/>
<path d="M11.9992 31.8002C12.9933 31.8002 13.7992 30.9942 13.7992 30.0002C13.7992 29.0062 12.9933 28.2002 11.9992 28.2002C11.0052 28.2002 10.1992 29.0062 10.1992 30.0002C10.1992 30.9942 11.0052 31.8002 11.9992 31.8002ZM11.9992 29.4002C12.3306 29.4002 12.5992 29.6688 12.5992 30.0002C12.5992 30.3315 12.3306 30.6002 11.9992 30.6002C11.6679 30.6002 11.3992 30.3315 11.3992 30.0002C11.3992 29.6688 11.6679 29.4002 11.9992 29.4002Z" fill="#009DE1"/>
<path d="M23.9992 31.8002C24.9933 31.8002 25.7992 30.9942 25.7992 30.0002C25.7992 29.0062 24.9933 28.2002 23.9992 28.2002C23.0052 28.2002 22.1992 29.0062 22.1992 30.0002C22.1992 30.9942 23.0052 31.8002 23.9992 31.8002ZM23.9992 29.4002C24.3306 29.4002 24.5992 29.6688 24.5992 30.0002C24.5992 30.3315 24.3306 30.6002 23.9992 30.6002C23.6679 30.6002 23.3992 30.3315 23.3992 30.0002C23.3992 29.6688 23.6679 29.4002 23.9992 29.4002Z" fill="#009DE1"/>
<path d="M16.1992 28.2002H19.7992V29.4002H16.1992V28.2002Z" fill="#009DE1"/>
<path d="M16.1992 30.6001H19.7992V31.8001H16.1992V30.6001Z" fill="#009DE1"/>
<path d="M11.5742 24.7759L14.5742 21.7759L15.4227 22.6246L12.4229 25.6243L11.5742 24.7759Z" fill="#009DE1"/>
<path d="M15.7773 24.7759L18.7773 21.7759L19.6258 22.6243L16.6258 25.6243L15.7773 24.7759Z" fill="#009DE1"/>
<path d="M19.9766 24.7759L22.9766 21.7759L23.825 22.6246L20.8253 25.6243L19.9766 24.7759Z" fill="#009DE1"/>
</svg>
