<svg width="40" height="40" viewBox="0 0 40 40" fill="none" xmlns="http://www.w3.org/2000/svg">
<path d="M7.33333 32H6V33.3333H7.33333V32Z" fill="#009DE1"/>
<path d="M10.0013 32H8.66797V33.3333H10.0013V32Z" fill="#009DE1"/>
<path d="M7.33333 29.3333H6V30.6666H7.33333V29.3333Z" fill="#009DE1"/>
<path d="M10.0013 29.3333H8.66797V30.6666H10.0013V29.3333Z" fill="#009DE1"/>
<path d="M7.33333 26.6667H6V28.0001H7.33333V26.6667Z" fill="#009DE1"/>
<path d="M10.0013 26.6667H8.66797V28.0001H10.0013V26.6667Z" fill="#009DE1"/>
<path d="M7.33333 24H6V25.3333H7.33333V24Z" fill="#009DE1"/>
<path d="M10.0013 24H8.66797V25.3333H10.0013V24Z" fill="#009DE1"/>
<path d="M7.33333 21.3333H6V22.6666H7.33333V21.3333Z" fill="#009DE1"/>
<path d="M10.0013 21.3333H8.66797V22.6666H10.0013V21.3333Z" fill="#009DE1"/>
<path d="M7.33333 18.6667H6V20.0001H7.33333V18.6667Z" fill="#009DE1"/>
<path d="M10.0013 18.6667H8.66797V20.0001H10.0013V18.6667Z" fill="#009DE1"/>
<path d="M7.33333 16H6V17.3333H7.33333V16Z" fill="#009DE1"/>
<path d="M10.0013 16H8.66797V17.3333H10.0013V16Z" fill="#009DE1"/>
<path d="M7.33333 13.3333H6V14.6666H7.33333V13.3333Z" fill="#009DE1"/>
<path d="M10.0013 13.3333H8.66797V14.6666H10.0013V13.3333Z" fill="#009DE1"/>
<path d="M7.33333 10.6667H6V12.0001H7.33333V10.6667Z" fill="#009DE1"/>
<path d="M10.0013 10.6667H8.66797V12.0001H10.0013V10.6667Z" fill="#009DE1"/>
<path d="M31.3333 32H30V33.3333H31.3333V32Z" fill="#009DE1"/>
<path d="M34.0013 32H32.668V33.3333H34.0013V32Z" fill="#009DE1"/>
<path d="M31.3333 29.3333H30V30.6666H31.3333V29.3333Z" fill="#009DE1"/>
<path d="M34.0013 29.3333H32.668V30.6666H34.0013V29.3333Z" fill="#009DE1"/>
<path d="M31.3333 26.6667H30V28.0001H31.3333V26.6667Z" fill="#009DE1"/>
<path d="M34.0013 26.6667H32.668V28.0001H34.0013V26.6667Z" fill="#009DE1"/>
<path d="M31.3333 24H30V25.3333H31.3333V24Z" fill="#009DE1"/>
<path d="M20.6654 27.3333H19.332V28.6666H20.6654V27.3333Z" fill="#009DE1"/>
<path d="M18.0013 27.3333H16.668V28.6666H18.0013V27.3333Z" fill="#009DE1"/>
<path d="M23.3333 27.3333H22V28.6666H23.3333V27.3333Z" fill="#009DE1"/>
<path d="M20.6654 24.6667H19.332V26.0001H20.6654V24.6667Z" fill="#009DE1"/>
<path d="M18.0013 24.6667H16.668V26.0001H18.0013V24.6667Z" fill="#009DE1"/>
<path d="M23.3333 24.6667H22V26.0001H23.3333V24.6667Z" fill="#009DE1"/>
<path d="M20.6654 22H19.332V23.3333H20.6654V22Z" fill="#009DE1"/>
<path d="M18.0013 22H16.668V23.3333H18.0013V22Z" fill="#009DE1"/>
<path d="M23.3333 22H22V23.3333H23.3333V22Z" fill="#009DE1"/>
<path d="M20.6654 10.6667H19.332V12.0001H20.6654V10.6667Z" fill="#009DE1"/>
<path d="M18.0013 10.6667H16.668V12.0001H18.0013V10.6667Z" fill="#009DE1"/>
<path d="M23.3333 10.6667H22V12.0001H23.3333V10.6667Z" fill="#009DE1"/>
<path d="M20.6654 8H19.332V9.33333H20.6654V8Z" fill="#009DE1"/>
<path d="M18.0013 8H16.668V9.33333H18.0013V8Z" fill="#009DE1"/>
<path d="M23.3333 8H22V9.33333H23.3333V8Z" fill="#009DE1"/>
<path d="M20.6654 5.33325H19.332V6.66659H20.6654V5.33325Z" fill="#009DE1"/>
<path d="M18.0013 5.33325H16.668V6.66659H18.0013V5.33325Z" fill="#009DE1"/>
<path d="M23.3333 5.33325H22V6.66659H23.3333V5.33325Z" fill="#009DE1"/>
<path d="M34.0013 24H32.668V25.3333H34.0013V24Z" fill="#009DE1"/>
<path d="M31.3333 21.3333H30V22.6666H31.3333V21.3333Z" fill="#009DE1"/>
<path d="M34.0013 21.3333H32.668V22.6666H34.0013V21.3333Z" fill="#009DE1"/>
<path d="M31.3333 18.6667H30V20.0001H31.3333V18.6667Z" fill="#009DE1"/>
<path d="M34.0013 18.6667H32.668V20.0001H34.0013V18.6667Z" fill="#009DE1"/>
<path d="M31.3333 16H30V17.3333H31.3333V16Z" fill="#009DE1"/>
<path d="M34.0013 16H32.668V17.3333H34.0013V16Z" fill="#009DE1"/>
<path d="M31.3333 13.3333H30V14.6666H31.3333V13.3333Z" fill="#009DE1"/>
<path d="M34.0013 13.3333H32.668V14.6666H34.0013V13.3333Z" fill="#009DE1"/>
<path d="M31.3333 10.6667H30V12.0001H31.3333V10.6667Z" fill="#009DE1"/>
<path d="M34.0013 10.6667H32.668V12.0001H34.0013V10.6667Z" fill="#009DE1"/>
<path d="M39.3333 36H38.6667V34.476C39.4573 34.0367 40 32.838 40 31.3333C40 29.4327 39.14 28 38 28C37.4448 28.0325 36.9433 28.3428 36.6667 28.8253V8.66667C36.6667 8.2985 36.3682 8 36 8H28V4H30C30.3682 4 30.6667 3.7015 30.6667 3.33333V0.666667C30.6667 0.2985 30.3682 0 30 0H10C9.63183 0 9.33333 0.2985 9.33333 0.666667V3.33333C9.33333 3.7015 9.63183 4 10 4H12V8H4C3.63183 8 3.33333 8.2985 3.33333 8.66667V28.8253C3.05667 28.3428 2.55525 28.0325 2 28C0.86 28 0 29.4327 0 31.3333C0 32.838 0.542667 34.0367 1.33333 34.476V36H0.666667C0.2985 36 0 36.2985 0 36.6667V39.3333C0 39.7015 0.2985 40 0.666667 40H39.3333C39.7015 40 40 39.7015 40 39.3333V36.6667C40 36.2985 39.7015 36 39.3333 36ZM38 29.3333C38.166 29.3333 38.6667 30.0427 38.6667 31.3333C38.6667 32.624 38.166 33.3333 38 33.3333C37.834 33.3333 37.3333 32.624 37.3333 31.3333C37.3333 30.0427 37.834 29.3333 38 29.3333ZM36.6667 33.8413C36.8365 34.1018 37.0648 34.3192 37.3333 34.476V36H36.6667V33.8413ZM35.3333 9.33333V36H28.6667V14C28.6667 13.6318 28.3682 13.3333 28 13.3333V9.33333H35.3333ZM10.6667 2.66667V1.33333H29.3333V2.66667H10.6667ZM12.6667 18.6667V14.6667H27.3333V18.6667H12.6667ZM27.3333 20V36H26V20H27.3333ZM22 30H18C17.6318 30 17.3333 30.2985 17.3333 30.6667V36H15.3333V20H24.6667V36H22.6667V30.6667C22.6667 30.2985 22.3682 30 22 30ZM21.3333 31.3333V36H18.6667V31.3333H21.3333ZM14 20V36H12.6667V20H14ZM13.3333 13.3333V4H26.6667V13.3333H13.3333ZM4.66667 9.33333H12V13.3333C11.6318 13.3333 11.3333 13.6318 11.3333 14V36H4.66667V9.33333ZM3.33333 33.8413V36H2.66667V34.476C2.93525 34.3192 3.1635 34.1018 3.33333 33.8413ZM2 29.3333C2.166 29.3333 2.66667 30.0427 2.66667 31.3333C2.66667 32.624 2.166 33.3333 2 33.3333C1.834 33.3333 1.33333 32.624 1.33333 31.3333C1.33333 30.0427 1.834 29.3333 2 29.3333ZM38.6667 38.6667H1.33333V37.3333H38.6667V38.6667Z" fill="#009DE1"/>
<path d="M15.3333 16H14V17.3333H15.3333V16Z" fill="#009DE1"/>
<path d="M26.0013 16H24.668V17.3333H26.0013V16Z" fill="#009DE1"/>
</svg>
