<svg width="40" height="40" viewBox="0 0 40 40" fill="none" xmlns="http://www.w3.org/2000/svg">
<g clip-path="url(#clip0)">
<path d="M37.9826 31.5047C37.917 30.3008 37.1352 29.2544 35.9994 28.8507V14.0007L36.9326 14.5662C37.2518 14.7673 37.6216 14.8741 37.9991 14.8741C38.8926 14.8744 39.6778 14.2821 39.9231 13.4227C40.1682 12.5637 39.8136 11.6461 39.0544 11.1749L21.0667 0.309366C20.4188 -0.0974126 19.5958 -0.100159 18.9455 0.302958L0.934323 11.1804C0.249848 11.6113 -0.107495 12.412 0.0286068 13.2094C0.164708 14.0065 0.767705 14.6434 1.55624 14.8228C1.70363 14.8564 1.85438 14.8735 2.00574 14.8735C2.37712 14.8741 2.74087 14.7691 3.05488 14.5707L4.00088 14.0007V28.8507C2.86507 29.2544 2.08295 30.3008 2.01764 31.5047C0.813174 31.9237 0.00449907 33.0577 0.0011423 34.3332C0.00236294 35.0089 0.236116 35.6637 0.663035 36.1877C0.254731 36.4248 0.0026681 36.8609 0.0011423 37.333V38.6662C0.0011423 39.4026 0.598036 39.9995 1.33439 39.9995H38.6659C39.4022 39.9995 39.9991 39.4026 39.9991 38.6662V37.333C39.9967 36.8606 39.7446 36.4245 39.3363 36.1871C39.7639 35.6634 39.9976 35.0089 39.9991 34.3332C39.9958 33.0577 39.1871 31.9237 37.9826 31.5047ZM36.6659 31.6667C36.6674 31.7336 36.6622 31.8007 36.6506 31.8666C36.65 31.8782 36.65 31.8901 36.6506 31.902C36.6506 31.9139 36.6405 31.9234 36.6393 31.9353C36.6387 31.9685 36.6412 32.0018 36.6466 32.0345C36.6402 32.122 36.6595 32.2093 36.7019 32.2859C36.7165 32.3241 36.7351 32.3607 36.7571 32.3952C36.7831 32.4299 36.8123 32.4617 36.8447 32.4907C36.8731 32.5206 36.9045 32.5477 36.9378 32.5718C36.9762 32.5947 37.0168 32.6133 37.0592 32.628C37.0876 32.6436 37.1175 32.6573 37.148 32.6686C37.1639 32.6713 37.1798 32.6732 37.1959 32.6738C37.2033 32.6738 37.2084 32.6799 37.2158 32.6805C38.0455 32.7894 38.6659 33.4965 38.6659 34.3332C38.6601 35.2512 37.9173 35.9939 36.9991 35.9997H29.6661C28.7457 35.9997 27.9996 35.2536 27.9996 34.3332C27.9984 33.8886 28.1775 33.4626 28.4964 33.1526C28.7009 32.9441 28.9587 32.7961 29.2416 32.7244H29.2462C29.3103 32.7076 29.3713 32.6814 29.4275 32.6466C29.4369 32.6405 29.4415 32.6304 29.4503 32.6246C29.4873 32.5963 29.5215 32.5639 29.5517 32.5285C29.5807 32.501 29.6069 32.4711 29.6304 32.4385C29.6514 32.4016 29.6688 32.3628 29.6823 32.3225C29.6997 32.2841 29.7134 32.2441 29.7235 32.2032C29.7302 32.1172 29.7287 32.0305 29.7195 31.9444C29.7195 31.9341 29.7195 31.924 29.7195 31.9133C29.7073 31.8813 29.6923 31.8507 29.6749 31.8211C29.6655 31.7891 29.6536 31.7577 29.6395 31.7272C29.4378 31.4104 29.3313 31.0424 29.3329 30.6667C29.3304 29.7055 30.0137 28.8791 30.9581 28.7009C31.9029 28.5227 32.8401 29.0433 33.188 29.9392C33.2859 30.1693 33.3353 30.4168 33.3326 30.6667C33.3326 31.018 33.2392 31.3631 33.0622 31.6667C32.9411 31.873 32.9399 32.1284 33.0592 32.3356C33.1782 32.5432 33.3994 32.671 33.6387 32.6704C33.8779 32.6698 34.0986 32.5413 34.2166 32.3332C34.5099 31.8266 34.6646 31.252 34.6658 30.6667C34.6652 30.4607 34.6451 30.2554 34.606 30.0534C34.7345 30.0198 34.8666 30.0018 34.9994 30C35.9198 30 36.6659 30.7461 36.6659 31.6667ZM27.9996 28.6667V26.0002H29.3329V28.0173C28.9084 28.3374 28.5669 28.7543 28.3362 29.2334C28.1308 29.1183 28.0024 28.9023 27.9996 28.6667ZM31.3329 22.0005C31.7009 22.0005 31.9994 22.2989 31.9994 22.6669V24.667H30.6661V22.0005H31.3329ZM31.3329 27.3335C31.1089 27.3332 30.8855 27.3554 30.6661 27.4V26.0002H31.9994V27.4082C31.7802 27.3609 31.5569 27.3359 31.3329 27.3335ZM29.3329 24.667H27.9996V22.6669C27.9996 22.2989 28.2981 22.0005 28.6664 22.0005H29.3329V24.667ZM2.35576 13.4368C2.04602 13.6281 1.64046 13.5362 1.44394 13.2299C1.24742 12.9238 1.33286 12.5164 1.63558 12.315L19.6455 1.43663C19.7514 1.3698 19.8744 1.3344 20.0001 1.33471C20.1307 1.33501 20.2586 1.37255 20.3688 1.44273L38.3571 12.3089C38.5576 12.4374 38.6744 12.6632 38.6631 12.9012C38.6522 13.1392 38.5148 13.3531 38.3034 13.4627C38.0916 13.5719 37.8377 13.56 37.6372 13.4316L20.3453 2.96945C20.1332 2.84067 19.8671 2.84067 19.6547 2.96945L2.35576 13.4368ZM20.0001 4.31917L34.6658 13.1929V28.6902C34.4705 28.7125 34.2777 28.754 34.0906 28.8147C33.8856 28.5044 33.6295 28.2312 33.3326 28.0066V22.6669C33.3326 21.5626 32.4373 20.6672 31.3329 20.6672H28.6664C27.5617 20.6672 26.6664 21.5626 26.6664 22.6669V28.6667C26.6688 29.516 27.2086 30.2706 28.0115 30.5474C28.0115 30.588 27.9996 30.6258 27.9996 30.6667C28.0018 31.0283 28.0628 31.3872 28.1809 31.7293C27.9499 31.8599 27.7381 32.0223 27.5516 32.2111C26.533 33.2197 26.3746 34.8099 27.1745 35.9997H25.3331V22.0005C25.3331 20.5278 24.1393 19.334 22.6666 19.334H17.3336C15.8609 19.334 14.6668 20.5278 14.6668 22.0005V35.9997H12.8258C13.1572 35.5072 13.3339 34.9268 13.3336 34.3332C13.3376 33.5398 13.0217 32.7781 12.4572 32.2206C12.268 32.028 12.0531 31.863 11.8185 31.7299C11.9369 31.3878 11.9985 31.0286 12.0004 30.6667C12.0004 30.6246 11.9946 30.5874 11.993 30.5459C12.7929 30.2667 13.3299 29.5138 13.3336 28.6667V22.6669C13.3336 21.5626 12.4383 20.6672 11.3339 20.6672H8.66739C7.56271 20.6672 6.66737 21.5626 6.66737 22.6669V28.0127C6.37411 28.2367 6.119 28.5068 5.9121 28.8129C5.72412 28.7528 5.53034 28.7113 5.33413 28.6893V13.1929L20.0001 4.31917ZM23.9999 35.9997H16.0004V22.0005C16.0004 21.2641 16.5973 20.6672 17.3336 20.6672H22.6666C23.403 20.6672 23.9999 21.2641 23.9999 22.0005V35.9997ZM11.3339 22.0005C11.7019 22.0005 12.0004 22.2989 12.0004 22.6669V24.667H10.6671V22.0005H11.3339ZM11.6671 29.2288C11.4343 28.7531 11.0916 28.3396 10.6671 28.0228V26.0002H12.0004V28.6667C11.997 28.8998 11.8701 29.1138 11.6671 29.2288ZM9.33387 24.667H8.00062V22.6669C8.00062 22.2989 8.29907 22.0005 8.66739 22.0005H9.33387V24.667ZM8.00062 26.0002H9.33387V27.4134C8.89382 27.3252 8.44066 27.3252 8.00062 27.4134V26.0002ZM2.78573 32.6805C2.79306 32.6805 2.79824 32.6753 2.80557 32.6738C2.82174 32.6725 2.83761 32.6701 2.85348 32.6664C2.8843 32.6552 2.9142 32.6414 2.94289 32.6259C2.9847 32.6115 3.02498 32.5929 3.06282 32.5706C3.0973 32.5459 3.12934 32.5175 3.15833 32.4864C3.18976 32.4586 3.21845 32.4278 3.24439 32.3945C3.26666 32.3585 3.28558 32.3207 3.30084 32.2813C3.34295 32.2047 3.36187 32.1175 3.35486 32.0305C3.35974 31.9984 3.36218 31.9658 3.36218 31.9331C3.36218 31.9212 3.35302 31.9118 3.35089 31.8999C3.34875 31.888 3.35089 31.8767 3.35089 31.8645C3.33899 31.7992 3.33349 31.733 3.33411 31.6667C3.33411 30.7461 4.08053 30 5.00089 30C5.13394 30.0018 5.26608 30.0195 5.39485 30.0534C5.35518 30.2554 5.33504 30.4607 5.33413 30.6667C5.33535 31.2517 5.49006 31.8263 5.78271 32.3332C5.96672 32.6524 6.37472 32.762 6.69392 32.5779C7.01312 32.3939 7.12267 31.9859 6.93866 31.6667C6.76106 31.3634 6.66737 31.0183 6.66737 30.6667C6.66585 30.4098 6.71772 30.155 6.81995 29.9194C7.14281 29.1177 7.94538 28.6151 8.80746 28.6746C9.66985 28.7341 10.3955 29.3423 10.6052 30.1806C10.6485 30.339 10.6692 30.5026 10.6671 30.6667C10.6689 31.0415 10.5634 31.4089 10.3626 31.7253C10.3482 31.7558 10.3363 31.7876 10.3272 31.8199C10.3098 31.8489 10.2948 31.8794 10.2826 31.9112V31.9426C10.2735 32.0284 10.2719 32.115 10.2786 32.2014C10.2887 32.2423 10.3024 32.2822 10.3198 32.3207C10.3333 32.361 10.3507 32.3997 10.372 32.4367C10.3952 32.469 10.4215 32.4992 10.4504 32.5267C10.481 32.5621 10.5148 32.5941 10.5518 32.6225C10.5606 32.6286 10.5652 32.6387 10.5746 32.6445C10.6308 32.6793 10.6918 32.7058 10.7559 32.7226H10.7605C11.0473 32.7955 11.3083 32.9466 11.5145 33.1593C11.8282 33.4687 12.0037 33.8923 12.0004 34.3332C12.0004 35.2536 11.2542 35.9997 10.3339 35.9997H3.00087C2.08295 35.9939 1.34019 35.2512 1.33439 34.3332C1.33439 33.4959 1.95539 32.7888 2.78573 32.6805ZM1.33439 37.333H12.0004V38.6662H1.33439V37.333ZM13.3336 38.6662V37.333H26.6664V38.6662H13.3336ZM27.9996 38.6662V37.333H38.6659V38.6662H27.9996Z" fill="#009DE1"/>
<path d="M22.6653 29.3331C22.6653 29.7011 22.3669 29.9996 21.9985 29.9996C21.6305 29.9996 21.332 29.7011 21.332 29.3331C21.332 28.9647 21.6305 28.6663 21.9985 28.6663C22.3669 28.6663 22.6653 28.9647 22.6653 29.3331Z" fill="#009DE1"/>
<path d="M17.3332 18.0003H22.6662C23.4026 18.0003 23.9995 17.4031 23.9995 16.667V11.3337C23.9995 9.12467 22.2088 7.33398 19.9997 7.33398C17.7907 7.33398 16 9.12467 16 11.3337V16.667C16 17.4031 16.5969 18.0003 17.3332 18.0003ZM17.3332 14.0002H19.333V16.667H17.3332V14.0002ZM20.6662 16.667V14.0002H22.6662V16.667H20.6662ZM22.6662 11.3337V12.667H20.6662V8.76183C21.8402 9.06485 22.6616 10.1216 22.6662 11.3337ZM19.333 8.76183V12.667H17.3332V11.3337C17.3378 10.1216 18.1593 9.06485 19.333 8.76183Z" fill="#009DE1"/>
</g>
<defs>
<clipPath id="clip0">
<rect width="40" height="40" fill="white"/>
</clipPath>
</defs>
</svg>
