<svg width="40" height="40" viewBox="0 0 40 40" fill="none" xmlns="http://www.w3.org/2000/svg">
<path d="M25.3333 25.4006V19.3333C25.3333 18.2306 24.436 17.3333 23.3333 17.3333H4.66667C3.564 17.3333 2.66667 18.2306 2.66667 19.3333V25.4006C1.14733 25.7106 0 27.0573 0 28.6666V32.6666V39.3333C0 39.7013 0.298667 39.9999 0.666667 39.9999H3.33333C3.70133 39.9999 4 39.7013 4 39.3333V37.3333H24V39.3333C24 39.7013 24.2987 39.9999 24.6667 39.9999H27.3333C27.7013 39.9999 28 39.7013 28 39.3333V32.6666V28.6666C28 27.0573 26.8527 25.7106 25.3333 25.4006ZM4 19.3333C4 18.9659 4.29933 18.6666 4.66667 18.6666H23.3333C23.7007 18.6666 24 18.9659 24 19.3333V25.3333H22.6667V22.6666C22.6667 21.5639 21.7693 20.6666 20.6667 20.6666H16.6667C15.564 20.6666 14.6667 21.5639 14.6667 22.6666V25.3333H13.3333V22.6666C13.3333 21.5639 12.436 20.6666 11.3333 20.6666H7.33333C6.23067 20.6666 5.33333 21.5639 5.33333 22.6666V25.3333H4V19.3333ZM21.3333 22.6666V25.3333H16V22.6666C16 22.2993 16.2993 21.9999 16.6667 21.9999H20.6667C21.034 21.9999 21.3333 22.2993 21.3333 22.6666ZM12 22.6666V25.3333H6.66667V22.6666C6.66667 22.2993 6.966 21.9999 7.33333 21.9999H11.3333C11.7007 21.9999 12 22.2993 12 22.6666ZM26.6667 38.6666H25.3333V36.6666C25.3333 36.2986 25.0347 35.9999 24.6667 35.9999H3.33333C2.96533 35.9999 2.66667 36.2986 2.66667 36.6666V38.6666H1.33333V33.3333H26.6667V38.6666ZM26.6667 31.9999H1.33333V28.6666C1.33333 27.5639 2.23067 26.6666 3.33333 26.6666H6H12.6667H15.3333H22H24.6667C25.7693 26.6666 26.6667 27.5639 26.6667 28.6666V31.9999Z" fill="#009DE1"/>
<path d="M39.332 25.3333H29.9987C29.6307 25.3333 29.332 25.6319 29.332 25.9999V31.3332V35.9999H30.6654V31.9999H38.6654V35.9999H39.9987V31.3332V25.9999C39.9987 25.6319 39.7 25.3333 39.332 25.3333ZM38.6654 30.6666H30.6654V26.6666H38.6654V30.6666Z" fill="#009DE1"/>
<path d="M35.9987 28H33.332V29.3333H35.9987V28Z" fill="#009DE1"/>
<path d="M37.9649 19.7886L36.6316 15.7886C36.5403 15.5166 36.2863 15.3333 35.9989 15.3333H33.3323C33.0449 15.3333 32.7909 15.5166 32.6996 15.7893L31.3663 19.7892C31.2983 19.9926 31.3329 20.2159 31.4583 20.3899C31.5836 20.5639 31.7849 20.6666 31.9989 20.6666H33.9989V22.6666H32.6656V23.9999H36.6656V22.6666H35.3323V20.6666H37.3322C37.5462 20.6666 37.7476 20.5639 37.8729 20.3892C37.9982 20.2152 38.0322 19.9919 37.9649 19.7886ZM32.9236 19.3333L33.8129 16.6666H35.5189L36.4076 19.3333H32.9236Z" fill="#009DE1"/>
<path d="M39.606 8.72467L20.2727 0.058C20.0987 -0.0193333 19.9007 -0.0193333 19.7273 0.058L0.394 8.72467C0.154 8.83267 0 9.07067 0 9.33333V17.3333H1.33333V9.76467L20 1.39733L38.6667 9.76533V17.3333H40V9.33333C40 9.07067 39.846 8.83267 39.606 8.72467Z" fill="#009DE1"/>
<path d="M24.6007 9.22259L23.2854 9.44392C23.3167 9.62592 23.332 9.81259 23.332 9.99992C23.332 11.8379 21.8367 13.3333 19.9987 13.3333C18.1607 13.3333 16.6654 11.8379 16.6654 9.99992C16.6654 8.16192 18.1607 6.66659 19.9987 6.66659C20.38 6.66659 20.7547 6.73059 21.1107 6.85659L21.5547 5.59925C21.0554 5.42259 20.532 5.33325 19.9987 5.33325C17.4254 5.33325 15.332 7.42659 15.332 9.99992C15.332 12.5733 17.4254 14.6666 19.9987 14.6666C22.572 14.6666 24.6654 12.5733 24.6654 9.99992C24.6654 9.73859 24.6434 9.47725 24.6007 9.22259Z" fill="#009DE1"/>
<path d="M24.1953 5.52856L20 9.7239L19.138 8.8619L18.1953 9.80456L19.5286 11.1379C19.6586 11.2679 19.8293 11.3332 20 11.3332C20.1706 11.3332 20.3413 11.2679 20.4713 11.1379L25.138 6.47123L24.1953 5.52856Z" fill="#009DE1"/>
</svg>
