<svg width="40" height="40" viewBox="0 0 40 40" fill="none" xmlns="http://www.w3.org/2000/svg">
<g clip-path="url(#clip0)">
<path d="M0.435528 10.4794C-0.375935 10.9619 0.0290336 12.2147 0.971722 12.1289C2.43107 11.9946 3.50499 13.4692 2.92515 14.8175C2.55162 15.6857 3.61821 16.4606 4.32835 15.8371C5.42942 14.8706 7.16557 15.4324 7.48906 16.864C7.69719 17.7863 9.01524 17.7856 9.22337 16.864C9.54625 15.4349 11.2812 14.8688 12.3841 15.8371C13.0948 16.4609 14.1608 15.6854 13.7873 14.8175C13.2084 13.4717 14.2792 11.9943 15.7407 12.1289C16.6837 12.2147 17.0877 10.9616 16.2766 10.4794C15.0171 9.73083 15.015 7.90588 16.2766 7.15607C17.0884 6.67389 16.6834 5.42053 15.7407 5.50659C14.2817 5.64117 13.2074 4.16595 13.7873 2.81799C14.1608 1.94946 13.0942 1.17523 12.3841 1.7984C11.2827 2.76489 9.54686 2.20306 9.22337 0.771179C9.06559 0.0717163 8.36399 0.0808716 8.35637 0.078125C7.93797 0.078125 7.58122 0.363159 7.48906 0.771179C7.16557 2.20337 5.42912 2.76489 4.32835 1.7984C3.6176 1.17493 2.55162 1.95007 2.92515 2.81799C3.50407 4.16412 2.43321 5.64117 0.971722 5.50659C0.0299491 5.42023 -0.37624 6.67358 0.435528 7.15607C1.02757 7.50793 1.38096 8.12927 1.38096 8.81775C1.38096 9.50653 1.02757 10.1276 0.435528 10.4794ZM1.66935 6.6452C3.32524 6.37024 4.47422 4.79187 4.22337 3.12958C5.72453 3.88062 7.58213 3.27911 8.35606 1.7868C9.12907 3.27667 10.9855 3.88153 12.4888 3.12958C12.2382 4.78943 13.3847 6.36993 15.0431 6.6452C13.8648 7.84058 13.863 9.79309 15.0431 10.9906C13.3869 11.2653 12.2379 12.8436 12.4888 14.5059C10.9876 13.7549 9.12999 14.3567 8.35606 15.8487C7.58305 14.3585 5.72667 13.754 4.22337 14.5059C4.47392 12.8464 3.32768 11.2656 1.66935 10.9903C2.2324 10.419 2.55284 9.64905 2.55284 8.81775C2.55284 7.98645 2.2321 7.21619 1.66935 6.6452Z" fill="#009DE1"/>
<path d="M8.38706 12.6696C11.8624 12.6696 13.6431 8.44289 11.1651 5.96486C10.0143 4.81404 8.24516 4.49239 6.76353 5.16439C6.46873 5.29805 6.33842 5.64534 6.47209 5.93984C6.60545 6.23464 6.95304 6.36525 7.24754 6.23159C8.28727 5.76009 9.52873 5.98592 10.3362 6.79341C11.4111 7.86824 11.4111 9.61721 10.3362 10.692C9.26139 11.7669 7.51243 11.7669 6.4376 10.692C5.6295 9.88362 5.40397 8.64186 5.87669 7.60152C6.01035 7.30703 5.88004 6.95974 5.58555 6.82576C5.29075 6.69179 4.94346 6.8221 4.80949 7.1169C3.64677 9.67641 5.49491 12.6696 8.38706 12.6696Z" fill="#009DE1"/>
<path d="M35.0116 23.0045L39.6454 19.4471C39.8676 19.2768 40 19.0079 40 18.7281V17.7707C40 17.1024 39.3005 16.6629 38.6978 16.9556L34.4638 19.0113L34.3604 14.8783L35.2628 13.7409C36.8924 13.8513 36.7993 13.8468 36.8372 13.8468C37.1426 13.8468 37.4002 13.6097 37.4213 13.3005C37.4432 12.9776 37.1991 12.6981 36.8762 12.6761L36.1472 12.6264L37.8116 10.5289C38.0127 10.2753 37.9703 9.90695 37.7167 9.70554C37.4634 9.50443 37.0947 9.54685 36.8936 9.80045L36.4914 10.3076L36.4713 9.72507C36.4603 9.40158 36.189 9.14798 35.8658 9.15958C35.5423 9.17056 35.289 9.44156 35.3003 9.76505L35.3671 11.7243C35.0195 12.1622 34.7055 12.558 34.3146 13.0509L34.2682 11.1893C34.2471 10.3501 33.2861 9.88376 32.6138 10.387L32.0483 10.8103L30.4022 9.13333C29.7717 8.49124 28.6798 8.90414 28.631 9.80167L28.3017 15.8319L26.6605 14.9652L26.3177 11.778C26.283 11.456 25.9943 11.2229 25.6723 11.258C25.3506 11.2925 25.1178 11.5815 25.1526 11.9031L25.4108 14.3055L21.7511 12.3725C21.3019 12.1357 20.7465 12.2293 20.4004 12.6007L19.9295 13.1064C19.509 13.5578 19.5319 14.2694 19.9802 14.6933L21.225 15.8698L18.3136 16.572C17.9993 16.648 17.8055 16.9644 17.8815 17.2791C17.9575 17.5937 18.2739 17.7872 18.5886 17.7112L19.5355 17.4829L19.4101 18.5733C19.3704 18.9206 19.6417 19.2261 19.993 19.2261C20.2866 19.2261 20.5399 19.0058 20.5743 18.707L20.7486 17.1903L22.2412 16.8302L27.1393 21.4582C27.3608 21.6675 27.4725 21.9736 27.4384 22.2766C27.3389 23.1525 27.1725 24.028 26.9437 24.8789C26.8597 25.1914 27.045 25.5127 27.3575 25.597C27.67 25.6809 27.9913 25.4956 28.0753 25.1831C28.3194 24.2762 28.497 23.3423 28.6026 22.4085C28.6783 21.7414 28.432 21.0675 27.944 20.6067C27.1127 19.8212 21.7175 14.7229 20.8176 13.8724L21.2341 13.4253L28.5632 17.2956C28.9395 17.4945 29.3985 17.2373 29.4217 16.8094L29.7839 10.1767L31.2961 11.717C31.6574 12.0853 32.2412 12.1299 32.6544 11.8207L33.103 11.4847C33.1305 12.584 33.2986 19.2978 33.3148 19.9512C33.3255 20.3769 33.7735 20.6494 34.1565 20.4636L38.8281 18.1952V18.5971L34.2978 22.0749C33.7286 22.5119 33.4164 23.2004 33.4628 23.9167L33.6462 26.7404C33.8107 29.2752 34.8685 30.6595 35.5273 32.2336C34.3463 32.2336 28.7274 32.2336 27.5385 32.2336C29.5007 29.5774 30.7263 26.4661 31.1005 23.1644C31.1368 22.8427 30.9058 22.5525 30.5841 22.5162C30.2625 22.4793 29.9725 22.7109 29.9362 23.0323C29.552 26.4221 28.2114 29.5975 26.055 32.2339H24.4534C25.6284 30.7999 26.5823 29.2063 27.2919 27.4909C27.4155 27.1918 27.2733 26.8494 26.9742 26.7255C26.6751 26.6019 26.3327 26.7441 26.2088 27.0432C24.92 30.159 23.1488 31.9223 22.9175 32.2336C21.4368 32.2336 3.00995 32.2336 2.12006 32.2336C0.950928 32.2336 0 33.1848 0 34.3537V38.9362C0 39.56 0.507507 40.0675 1.13098 40.0675H38.8535C39.4812 40.0675 39.9844 39.5499 39.9844 38.9365L39.985 34.3537C39.985 33.1848 39.0338 32.2336 37.865 32.2336H36.825L35.5865 29.6295C34.5944 27.5434 34.8608 26.0147 34.6326 23.8407C34.6112 23.5154 34.7531 23.2029 35.0116 23.0045ZM1.17188 34.3537C1.17188 33.8309 1.59729 33.4055 2.12006 33.4055H4.73267L5.88684 35.1728L1.17188 35.4856V34.3537ZM11.9925 38.8956H1.17188V36.6599L6.88446 36.2809L12.2647 37.3987L11.9925 38.8956ZM7.28271 35.1667L6.1322 33.4055H17.1844L12.822 36.3178L7.28271 35.1667ZM13.1833 38.8956L13.4753 37.2907L19.295 33.4055H23.7784L23.9392 35.9104L21.3705 38.8956H13.1833ZM22.9166 38.8956L24.9832 36.4936C25.0833 36.3776 25.1337 36.2268 25.1239 36.0739L24.9527 33.4055H30.463L30.9424 35.8463L28.4534 38.8956H22.9166ZM29.9661 38.8956L31.7413 36.7206L36.6367 38.8956H29.9661ZM37.865 33.4055C38.3878 33.4055 38.8129 33.8309 38.8129 34.3537L38.8126 38.5797L32.0865 35.5918L31.6574 33.4055C37.1127 33.4058 36.095 33.4058 37.865 33.4055Z" fill="#009DE1"/>
</g>
<defs>
<clipPath id="clip0">
<rect width="40" height="40" fill="white"/>
</clipPath>
</defs>
</svg>
