<svg width="40" height="40" viewBox="0 0 40 40" fill="none" xmlns="http://www.w3.org/2000/svg">
<g clip-path="url(#clip0)">
<path d="M39.5508 6.70402L20.2174 0.0373535C20.0765 -0.0111491 19.9235 -0.0111491 19.7826 0.0373535L0.449219 6.70402C0.180664 6.79679 0 7.04972 0 7.3339V39.3339C0 39.7021 0.298503 40.0006 0.666667 40.0006H4C4.36816 40.0006 4.66667 39.7021 4.66667 39.3339V16.0006H35.3333V39.3339C35.3333 39.7021 35.6318 40.0006 36 40.0006H39.3333C39.7015 40.0006 40 39.7021 40 39.3339V7.3339C40 7.04972 39.8193 6.79679 39.5508 6.70402ZM35.3333 14.6672H4.66667V13.3339H35.3333V14.6672ZM35.3333 12.0006H4.66667V10.6672H35.3333V12.0006ZM38.6667 38.6672H36.6667V10.0006C36.6667 9.63241 36.3682 9.3339 36 9.3339H4C3.63184 9.3339 3.33333 9.63241 3.33333 10.0006V38.6672H1.33333V7.80916L20 1.37264L38.6667 7.80916V38.6672Z" fill="#009DE1"/>
<path d="M30.6667 25.3329H23.3333V19.3329C23.3333 18.9648 23.0348 18.6663 22.6667 18.6663H6.66667C6.2985 18.6663 6 18.9648 6 19.3329V39.3329C6 39.7011 6.2985 39.9996 6.66667 39.9996H30.6667C31.0348 39.9996 31.3333 39.7011 31.3333 39.3329V25.9996C31.3333 25.6314 31.0348 25.3329 30.6667 25.3329ZM10 19.9996H11.3333V21.3329H10V19.9996ZM14 38.6663H7.33333V33.3329H8.66667V35.3329C8.66667 35.7011 8.96517 35.9996 9.33333 35.9996H12C12.3682 35.9996 12.6667 35.7011 12.6667 35.3329V33.3329H14V38.6663ZM10 34.6663V33.3329H11.3333V34.6663H10ZM14 31.9996H7.33333V26.6663H8.66667V28.6663C8.66667 29.0344 8.96517 29.3329 9.33333 29.3329H12C12.3682 29.3329 12.6667 29.0344 12.6667 28.6663V26.6663H14V31.9996ZM10 27.9996V26.6663H11.3333V27.9996H10ZM14 25.3329H7.33333V19.9996H8.66667V21.9996C8.66667 22.3678 8.96517 22.6663 9.33333 22.6663H12C12.3682 22.6663 12.6667 22.3678 12.6667 21.9996V19.9996H14V25.3329ZM18 19.9996H19.3333V21.3329H18V19.9996ZM22 38.6663H15.3333V33.3329H16.6667V35.3329C16.6667 35.7011 16.9652 35.9996 17.3333 35.9996H20C20.3682 35.9996 20.6667 35.7011 20.6667 35.3329V33.3329H22V38.6663ZM18 34.6663V33.3329H19.3333V34.6663H18ZM22 31.9996H15.3333V26.6663H16.6667V28.6663C16.6667 29.0344 16.9652 29.3329 17.3333 29.3329H20C20.3682 29.3329 20.6667 29.0344 20.6667 28.6663V26.6663H22V31.9996ZM18 27.9996V26.6663H19.3333V27.9996H18ZM22 25.3329H15.3333V19.9996H16.6667V21.9996C16.6667 22.3678 16.9652 22.6663 17.3333 22.6663H20C20.3682 22.6663 20.6667 22.3678 20.6667 21.9996V19.9996H22V25.3329ZM26 26.6663H27.3333V27.9996H26V26.6663ZM30 38.6663H23.3333V33.3329H24.6667V35.3329C24.6667 35.7011 24.9652 35.9996 25.3333 35.9996H28C28.3682 35.9996 28.6667 35.7011 28.6667 35.3329V33.3329H30V38.6663ZM26 34.6663V33.3329H27.3333V34.6663H26ZM30 31.9996H23.3333V26.6663H24.6667V28.6663C24.6667 29.0344 24.9652 29.3329 25.3333 29.3329H28C28.3682 29.3329 28.6667 29.0344 28.6667 28.6663V26.6663H30V31.9996Z" fill="#009DE1"/>
</g>
<defs>
<clipPath id="clip0">
<rect width="40" height="40" fill="white"/>
</clipPath>
</defs>
</svg>
