<?xml version="1.0" encoding="UTF-8"?>
<svg width="120px" height="37px" viewBox="0 0 120 37" version="1.1" xmlns="http://www.w3.org/2000/svg" xmlns:xlink="http://www.w3.org/1999/xlink">
    <!-- Generator: Sketch 50.2 (55047) - http://www.bohemiancoding.com/sketch -->
    <title>Logo_black_tr</title>
    <desc>Created with Sketch.</desc>
    <defs>
        <linearGradient x1="49.9999992%" y1="3.06479787e-15%" x2="49.9999992%" y2="100%" id="linearGradient-1">
            <stop stop-color="#F9A11B" offset="0%"></stop>
            <stop stop-color="#F16A21" offset="100%"></stop>
        </linearGradient>
    </defs>
    <g id="Welcome" stroke="none" stroke-width="1" fill="none" fill-rule="evenodd">
        <g id="01-Mediakit-Web-Desktop-HD" transform="translate(-1018.000000, -882.000000)">
            <g id="4-logos" transform="translate(0.000000, 591.000000)">
                <g transform="translate(243.000000, 234.000000)" id="4">
                    <g transform="translate(716.000000, 0.000000)">
                        <g id="Logo_black_tr" transform="translate(59.000000, 57.000000)">
                            <g id="Small_black_bg-(2)">
                                <ellipse id="Oval" fill="url(#linearGradient-1)" fill-rule="nonzero" cx="18.3272727" cy="18.4988575" rx="18.3272727" ry="18.4268775"></ellipse>
                                <path d="M118.084091,13.5168139 C117.601276,13.5163591 117.138057,13.7087628 116.796336,14.0516984 C116.454615,14.3946339 116.262384,14.8600097 116.261932,15.3454484 L116.261932,21.9641798 C116.111932,24.020751 114.484091,25.5049098 112.33125,25.5049098 C110.178409,25.5049098 108.6,23.4877563 108.6,21.765378 L108.6,15.2529027 C108.56996,14.2680419 107.767214,13.4853058 106.787216,13.4853058 C105.807218,13.4853058 105.004472,14.2680419 104.974432,15.2529027 L104.974432,21.765378 C104.974432,25.8339612 108.257386,28.8571208 112.303977,28.8622622 C113.752841,28.8622622 115.268182,28.2041595 116.307955,27.4295177 L116.307955,28.0567719 C116.307955,30.4115458 114.332386,32.3412951 111.990341,32.3412951 C110.993146,32.3434773 110.027235,31.9914317 109.263068,31.3472857 C108.49019,30.7301396 107.36896,30.8446233 106.735257,31.6053891 C106.101554,32.3661548 106.18622,33.4960744 106.926136,34.1527915 C109.273208,36.1334496 112.548999,36.5676302 115.326399,35.2661809 C118.103798,33.9647317 119.8798,31.1633544 119.880682,28.082479 L119.880682,15.3625865 C119.884768,14.8771428 119.696878,14.4099515 119.35835,14.0637982 C119.019822,13.7176449 118.558388,13.5208874 118.075568,13.5168139 L118.084091,13.5168139 Z" id="Shape" fill="#000000" fill-rule="nonzero"></path>
                                <path d="M59.0795455,6.93921381 C58.0741362,6.93921381 57.2590909,7.75868867 57.2590909,8.76956213 L57.2590909,27.7928452 C57.2590909,28.8037187 58.0741362,29.6231936 59.0795455,29.6231936 C60.0849547,29.6231936 60.9,28.8037187 60.9,27.7928452 L60.9,8.76956213 C60.9,7.75868867 60.0849547,6.93921381 59.0795455,6.93921381 Z" id="Shape" fill="#000000" fill-rule="nonzero"></path>
                                <path d="M52.8102273,10.6033381 C53.8670455,10.4902267 54.6443182,9.71729867 54.6443182,8.77298975 C54.6424396,7.76317725 53.828219,6.94529811 52.8238636,6.94435524 L52.8102273,6.94435524 C49.5091325,6.96633904 46.8075854,9.59202747 46.6738636,12.9084116 L46.6738636,27.8185524 C46.6465208,28.8267822 47.4355558,29.66725 48.4382438,29.6979427 C49.4409319,29.7286354 50.2793577,28.9379849 50.3130682,27.92995 C50.3130682,27.89396 50.3130682,27.8562562 50.3130682,27.8185524 L50.3130682,16.8501729 L52.5204545,16.8501729 C53.4392555,16.8501729 54.1840908,16.1012895 54.1840908,15.1774951 C54.1840908,14.2537006 53.4392555,13.5048172 52.5204545,13.5048172 L50.3045455,13.5048172 L50.3045455,13.2751667 C50.3011364,11.8818398 51.2573864,10.7712914 52.8102273,10.6033381 Z" id="Shape" fill="#000000" fill-rule="nonzero"></path>
                                <path d="M90.3136364,13.4825377 L88.7795455,13.4825377 L88.7795455,8.76956213 C88.8014476,8.11462733 88.4734405,7.49789003 87.9195389,7.15252984 C87.3656374,6.80716964 86.6703643,6.78588704 86.0965927,7.09672868 C85.5228211,7.40757031 85.158106,8.00310309 85.1403409,8.65816453 C85.1403409,8.69415452 85.1403409,8.73185833 85.1403409,8.76956213 L85.1403409,13.4825377 L83.6198864,13.4825377 C82.7006147,13.4527226 81.9313585,14.1778197 81.9017045,15.1020875 C81.8720506,16.0263552 82.5932283,16.7997921 83.5125,16.8296072 C83.5477273,16.8296072 83.5835227,16.8296072 83.6198864,16.8296072 L85.1454545,16.8296072 L85.1454545,23.8219491 C85.1460053,26.222373 86.5395557,28.4017505 88.7113636,29.3986845 C88.8017045,29.439816 88.8920455,29.4792336 88.9857955,29.5169374 C89.9058075,29.8597293 90.9302346,29.4055015 91.2989123,28.4913084 C91.6675901,27.5771153 91.2470867,26.5338217 90.3494318,26.1355917 L90.2693182,26.0978878 C89.3730599,25.6985076 88.7932315,24.807602 88.7880682,23.8219491 L88.7880682,16.8278934 L90.3102273,16.8278934 C91.2290283,16.8278934 91.9738636,16.07901 91.9738636,15.1552155 C91.9738636,14.2314211 91.2290283,13.4825377 90.3102273,13.4825377 L90.3136364,13.4825377 Z" id="Shape" fill="#000000" fill-rule="nonzero"></path>
                                <path d="M101.018182,10.6033381 C102.073295,10.4902267 102.850568,9.71729867 102.850568,8.77298975 C102.850568,7.76306279 102.036286,6.94435524 101.031818,6.94435524 L101.018182,6.94435524 C97.7167335,6.96546798 95.0146861,9.59164267 94.8818182,12.9084116 L94.8818182,27.8185524 C94.8818182,28.8294258 95.6968634,29.6489007 96.7022727,29.6489007 C97.707682,29.6489007 98.5227273,28.8294258 98.5227273,27.8185524 L98.5227273,16.8501729 L100.728409,16.8501729 C101.64721,16.8501729 102.392045,16.1012895 102.392045,15.1774951 C102.392045,14.2537006 101.64721,13.5048172 100.728409,13.5048172 L98.5125,13.5048172 L98.5125,13.2751667 C98.5090909,11.8818398 99.4653409,10.7712914 101.018182,10.6033381 Z" id="Shape" fill="#000000" fill-rule="nonzero"></path>
                                <path d="M78.3835227,13.506531 C77.5798293,13.5066136 76.8709139,14.0356212 76.6380682,14.8090261 C73.1921483,12.2545571 68.3823486,12.7375453 65.5069791,15.9267825 C62.6316095,19.1160197 62.6242551,23.9760133 65.489959,27.1740329 C68.3556629,30.3720526 73.1639786,30.8697542 76.6176136,28.3258399 C76.8863992,29.1870445 77.739477,29.7226725 78.6270918,29.5875452 C79.5147066,29.4524179 80.1718355,28.6868814 80.175,27.7842762 L80.2005682,15.3385931 C80.2015107,14.3283878 79.3882662,13.5084223 78.3835227,13.506531 Z M73.4795455,26.1304502 L73.4659091,26.1304502 C73.40625,26.1544436 73.3448864,26.1767231 73.2835227,26.1972888 L73.2443182,26.2109993 C73.1880682,26.2298512 73.1318182,26.2487031 73.0738636,26.2641273 L73.0142045,26.2812654 L72.8573864,26.3241107 L72.7806818,26.3412488 C72.7329545,26.3515316 72.6852273,26.3635283 72.6357955,26.3720973 L72.5403409,26.3892354 L72.4073864,26.4115149 C72.3684693,26.4142355 72.3297583,26.4193869 72.2914773,26.4269392 L72.1755682,26.4406497 L72.0289773,26.4526464 L71.6880682,26.4526464 C68.999541,26.4489209 66.8178267,24.264534 66.8028409,21.5614347 L66.8028409,21.5408689 C66.8047199,18.8267816 68.9920615,16.6267855 71.6914773,16.6239501 L72.0323864,16.6239501 L72.1772727,16.634233 L72.2948864,16.6496572 L72.4107955,16.6633677 L72.54375,16.6856472 L72.6392045,16.7027853 L72.7840909,16.7353477 L72.8607955,16.7524858 L73.0176136,16.7936172 L73.0772727,16.8107553 L73.2477273,16.8655972 L73.2886364,16.8793077 C73.35,16.8998734 73.4096591,16.9221529 73.4710227,16.9461462 L73.4897727,16.9461462 C75.3580561,17.6852076 76.5863908,19.4982777 76.5863908,21.5168756 C76.5863908,23.5354735 75.3580561,25.3485436 73.4897727,26.087605 L73.4795455,26.1304502 Z" id="Shape" fill="#000000" fill-rule="nonzero"></path>
                                <path d="M12.8420455,11.4225389 C12.7166708,11.422686 12.5914274,11.4306994 12.4670455,11.4465322 C12.5005966,11.6042719 12.5177343,11.7650931 12.5181818,11.9263988 C12.5203415,12.6331796 12.1920978,13.2999135 11.6318248,13.7267819 C11.0715518,14.1536502 10.3443579,14.2910472 9.66818182,14.0977952 C9.43090064,15.4404384 10.0544911,16.7888707 11.228486,17.4717476 C12.402481,18.1546245 13.8759681,18.0259982 14.915342,17.1499077 C15.9547159,16.2738173 16.3378362,14.8375054 15.8739587,13.556069 C15.4100812,12.2746326 14.1983481,11.421947 12.8420455,11.4225389 Z" id="Shape" fill="#221F1F" fill-rule="nonzero"></path>
                                <path d="M11.2943182,8.74042737 C8.76458334,8.73626682 6.48164088,10.2652224 5.51068461,12.6139015 C4.53972834,14.9625807 5.07211887,17.6680948 6.8594491,19.4680832 C8.64677933,21.2680715 11.3367939,21.807784 13.6743639,20.8353971 C16.0119339,19.8630103 17.5363603,17.5701666 17.5363636,15.0266798 C17.5377204,13.3608254 16.8808403,11.7626583 15.7102296,10.5837571 C14.5396189,9.40485598 12.951168,8.74179041 11.2943182,8.74042737 Z M12.8420455,17.9110209 C11.8860885,17.9150591 10.9779864,17.4909036 10.3644703,16.7537972 C9.75095422,16.0166908 9.4957446,15.0431902 9.66818182,14.0977952 C10.3443579,14.2910472 11.0715518,14.1536502 11.6318248,13.7267819 C12.1920978,13.2999135 12.5203415,12.6331796 12.5181818,11.9263988 C12.5177343,11.7650931 12.5005966,11.6042719 12.4670455,11.4465322 C12.5914274,11.4306994 12.7166708,11.422686 12.8420455,11.4225389 C14.6241052,11.4225389 16.06875,12.8750351 16.06875,14.6667799 C16.06875,16.4585247 14.6241052,17.9110209 12.8420455,17.9110209 Z" id="Shape" fill="#FFFFFF" fill-rule="nonzero"></path>
                                <path d="M27.4431818,11.4225389 C27.3178107,11.4227958 27.192574,11.4308087 27.0681818,11.4465322 C27.1031389,11.6040732 27.1208579,11.764985 27.1210227,11.9263988 C27.121475,12.524561 26.885574,13.0984046 26.4652155,13.5216906 C26.0448569,13.9449765 25.4744743,14.1830313 24.8795455,14.1834857 C24.6730556,14.1834169 24.4676127,14.1539908 24.2693182,14.0960814 C24.235211,14.2844044 24.2175301,14.475363 24.2164773,14.6667799 C24.2164773,16.4585247 25.6611221,17.9110209 27.4431818,17.9110209 C29.2252415,17.9110209 30.6698864,16.4585247 30.6698864,14.6667799 C30.6698864,12.8750351 29.2252415,11.4225389 27.4431818,11.4225389 Z" id="Shape" fill="#221F1F" fill-rule="nonzero"></path>
                                <path d="M25.8579545,8.74042737 C23.3282197,8.73626682 21.0452772,10.2652224 20.074321,12.6139015 C19.1033647,14.9625807 19.6357552,17.6680948 21.4230855,19.4680832 C23.2104157,21.2680715 25.9004302,21.807784 28.2380003,20.8353971 C30.5755703,19.8630103 32.0999966,17.5701666 32.1,15.0266798 C32.1013568,13.3608254 31.4444767,11.7626583 30.273866,10.5837571 C29.1032552,9.40485598 27.5148043,8.74179041 25.8579545,8.74042737 Z M27.4431818,17.9110209 C25.6615118,17.9100753 24.2174177,16.4581329 24.2164773,14.6667799 C24.2175301,14.475363 24.235211,14.2844044 24.2693182,14.0960814 C24.4676127,14.1539908 24.6730556,14.1834169 24.8795455,14.1834857 C25.4744743,14.1830313 26.0448569,13.9449765 26.4652155,13.5216906 C26.885574,13.0984046 27.121475,12.524561 27.1210227,11.9263988 C27.1208579,11.764985 27.1031389,11.6040732 27.0681818,11.4465322 C27.192574,11.4308087 27.3178107,11.4227958 27.4431818,11.4225389 C29.2252415,11.4225389 30.6698864,12.8750351 30.6698864,14.6667799 C30.6698864,16.4585247 29.2252415,17.9110209 27.4431818,17.9110209 Z" id="Shape" fill="#FFFFFF" fill-rule="nonzero"></path>
                            </g>
                        </g>
                    </g>
                </g>
            </g>
        </g>
    </g>
</svg>