<svg width="516" height="112" viewBox="0 0 516 112" fill="none" xmlns="http://www.w3.org/2000/svg">
<path d="M173.606 65.7894C173.196 65.5023 172.705 65.3485 172.203 65.3489H171.76C171.448 65.3894 171.149 65.4955 170.881 65.6601C170.614 65.8247 170.385 66.044 170.209 66.3034C167.255 70.8561 164.965 73.1324 160.681 73.1324C152.556 73.1324 151.301 62.4851 151.301 56.1701C151.301 52.2049 151.965 39.3547 160.681 39.3547C163.635 39.3547 165.999 41.1905 168.067 45.4494C168.285 45.8242 168.596 46.1363 168.972 46.3551C169.347 46.574 169.774 46.692 170.209 46.6977C170.545 46.8045 170.907 46.8045 171.243 46.6977L177.004 43.834C177.29 43.6988 177.543 43.5043 177.747 43.2637C177.951 43.023 178.101 42.7418 178.186 42.4388C178.314 42.1496 178.38 41.837 178.38 41.5209C178.38 41.2049 178.314 40.8923 178.186 40.6031C176.764 37.1397 174.327 34.1814 171.193 32.1124C168.058 30.0434 164.37 28.9594 160.607 29.0012C151.079 29.0012 140 36.3441 140 56.5373C140 73.7198 147.903 84 161.124 84C164.965 83.969 168.723 82.8826 171.981 80.8611C175.24 78.8395 177.873 75.9614 179.589 72.545C179.766 72.2919 179.89 72.0056 179.953 71.7036C180.015 71.4015 180.016 71.09 179.954 70.7878C179.891 70.4857 179.768 70.1992 179.591 69.9459C179.414 69.6926 179.187 69.4776 178.924 69.3141L173.606 65.7894Z" fill="#231F20"/>
<path d="M217.037 28C212.327 28 197 30.0187 197 56.0374C197 82.0561 211.953 84 217.037 84C235.579 84 237 62.6168 237 56.0374C237 35.3271 226.682 28 217.037 28ZM217.037 38.8411C224.065 38.8411 225.561 48.1869 225.561 56.0374C225.561 62.4673 224.439 73.2336 217.037 73.2336C209.636 73.2336 208.514 62.4673 208.514 56.0374C208.514 48.1869 210.009 38.8411 217.037 38.8411Z" fill="#231F20"/>
<path d="M288.46 29H282.038C281.398 29.0193 280.79 29.2864 280.344 29.7447C279.898 30.2029 279.649 30.8162 279.649 31.4544V64.9984C279.649 71.2461 278.678 73.1799 272.182 73.1799C267.925 73.1799 265.984 71.9155 265.984 64.9984V31.4544C265.984 30.8035 265.724 30.1792 265.262 29.7189C264.8 29.2586 264.173 29 263.52 29H257.397C257.077 28.9998 256.76 29.0638 256.465 29.188C256.17 29.3123 255.903 29.4942 255.68 29.7232C255.457 29.9521 255.283 30.2234 255.167 30.5208C255.052 30.8182 254.997 31.1357 255.007 31.4544V67.6016C254.938 69.8889 255.364 72.1643 256.258 74.2726C257.151 76.3808 258.49 78.2724 260.184 79.8184C261.878 81.3644 263.886 82.5284 266.073 83.2311C268.259 83.9337 270.572 84.1585 272.854 83.8902C275.118 84.1507 277.412 83.9347 279.587 83.2562C281.762 82.5776 283.77 81.4517 285.48 79.9513C287.191 78.4509 288.566 76.6094 289.516 74.5461C290.467 72.4828 290.972 70.2436 290.999 67.9735V31.4544C291.009 31.1357 290.954 30.8182 290.839 30.5208C290.723 30.2234 290.549 29.9521 290.326 29.7232C290.103 29.4942 289.836 29.3123 289.541 29.188C289.246 29.0638 288.93 28.9998 288.609 29" fill="#231F20"/>
<path d="M345.523 29.0049H339.332C338.694 29.0049 338.083 29.261 337.632 29.7169C337.182 30.1727 336.928 30.791 336.928 31.4357V60.9009L323.017 30.4045C322.813 29.9611 322.482 29.5904 322.066 29.3407C321.65 29.091 321.169 28.9739 320.687 29.0049H313.403C312.766 29.0049 312.155 29.261 311.704 29.7169C311.253 30.1727 311 30.791 311 31.4357V80.5689C311.019 81.2008 311.281 81.8003 311.729 82.2404C312.178 82.6805 312.778 82.9264 313.403 82.9261H319.594C320.212 82.9261 320.805 82.6778 321.242 82.2357C321.679 81.7937 321.925 81.1941 321.925 80.5689V51.1037L335.836 81.6002C336.01 82.0198 336.304 82.3772 336.68 82.6266C337.057 82.8759 337.498 83.0059 337.948 82.9998H345.668C346.286 82.9998 346.879 82.7514 347.316 82.3094C347.753 81.8673 347.999 81.2678 347.999 80.6426V31.4357C348.009 31.12 347.956 30.8056 347.843 30.511C347.73 30.2165 347.56 29.9479 347.343 29.7211C347.125 29.4944 346.865 29.3141 346.577 29.1911C346.29 29.068 345.981 29.0047 345.668 29.0049" fill="#231F20"/>
<path d="M402.624 29H369.375C368.738 29.0192 368.134 29.2841 367.691 29.7386C367.248 30.1931 367 30.8014 367 31.4344V37.041C367 37.6671 367.25 38.2675 367.696 38.7102C368.141 39.1529 368.745 39.4016 369.375 39.4016H380.582V80.6393C380.6 81.2596 380.856 81.8493 381.298 82.2881C381.739 82.7268 382.333 82.9815 382.957 83H389.265C389.902 83.0003 390.514 82.754 390.971 82.3133C391.428 81.8725 391.695 81.2721 391.714 80.6393V39.4016H402.624C403.254 39.4016 403.858 39.1529 404.303 38.7102C404.749 38.2675 404.999 37.6671 404.999 37.041V31.4344C405.009 31.1183 404.955 30.8033 404.84 30.5084C404.725 30.2134 404.552 29.9444 404.33 29.7173C404.109 29.4902 403.843 29.3097 403.55 29.1865C403.257 29.0633 402.942 28.9998 402.624 29Z" fill="#231F20"/>
<path d="M449.515 59.7187C452.198 58.2598 454.441 56.126 456.017 53.5343C457.593 50.9425 458.446 47.9852 458.488 44.963C458.673 42.7395 458.344 40.5035 457.527 38.4232C456.71 36.3429 455.426 34.4726 453.77 32.9528C452.115 31.4331 450.132 30.3035 447.97 29.6491C445.809 28.9947 443.525 28.8324 441.291 29.1745H424.467C423.813 29.1745 423.185 29.431 422.723 29.8876C422.26 30.3442 422 30.9635 422 31.6092V80.8192C422.019 81.452 422.288 82.0525 422.749 82.4933C423.209 82.934 423.826 83.1804 424.467 83.1801H430.823C431.457 83.1801 432.066 82.9313 432.515 82.4886C432.963 82.0458 433.215 81.4453 433.215 80.8192V61.932H438.898L450.861 82.8112C451.007 83.0974 451.217 83.3463 451.477 83.5383C451.736 83.7304 452.038 83.8603 452.357 83.9179H452.955C453.371 84.0274 453.809 84.0274 454.226 83.9179L459.684 80.5978C459.974 80.4544 460.226 80.2465 460.421 79.9904C460.616 79.7344 460.747 79.4372 460.806 79.1223C460.934 78.8442 461 78.5424 461 78.2369C461 77.9315 460.934 77.6297 460.806 77.3516L449.515 59.7187ZM447.048 44.963C447.048 49.0946 444.057 51.6031 439.571 51.6031H433.589V39.5772H441.44C444.132 39.5772 447.422 40.5364 447.422 44.8893" fill="#231F20"/>
<path d="M515.11 31.3578L509.186 28.2725C508.849 28.1966 508.5 28.1966 508.163 28.2725H507.431C506.85 28.4969 506.361 28.9108 506.042 29.4478L495.219 50.3839L484.397 29.2275C484.078 28.6904 483.588 28.2765 483.007 28.0521H482.276C481.914 27.9826 481.542 27.9826 481.179 28.0521L475.329 31.1374C474.773 31.4665 474.357 31.9894 474.159 32.6066C473.947 33.2002 473.947 33.8495 474.159 34.4431L489.442 61.9171V80.6493C489.461 81.2794 489.724 81.8773 490.175 82.3162C490.625 82.755 491.228 83.0003 491.856 83H498.071C498.692 83 499.287 82.7523 499.726 82.3115C500.165 81.8707 500.411 81.2727 500.411 80.6493V62.1374L515.841 34.6635C516.053 34.0699 516.053 33.4206 515.841 32.827C515.643 32.2097 515.227 31.6869 514.671 31.3578" fill="#231F20"/>
<path d="M55.8404 0C44.7962 0 34.0001 3.27498 24.8172 9.4108C15.6343 15.5466 8.47705 24.2677 4.25062 34.4712C0.0241946 44.6747 -1.08163 55.9023 1.07298 66.7343C3.2276 77.5663 8.54588 87.5161 16.3553 95.3255C24.1647 103.135 34.1145 108.453 44.9465 110.608C55.7785 112.762 67.0061 111.657 77.2096 107.43C87.4131 103.204 96.1342 96.0466 102.27 86.8637C108.406 77.6808 111.681 66.8846 111.681 55.8404C111.669 41.0342 105.782 26.8377 95.3128 16.3681C84.8432 5.89846 70.6467 0.0115719 55.8404 0V0ZM55.8404 104.515C46.2135 104.515 36.8027 101.66 28.7982 96.3119C20.7937 90.9634 14.555 83.3615 10.8709 74.4674C7.18684 65.5732 6.22292 55.7864 8.10104 46.3444C9.97916 36.9025 14.615 28.2295 21.4222 21.4222C28.2295 14.615 36.9025 9.97914 46.3445 8.10102C55.7864 6.22289 65.5733 7.18682 74.4674 10.8709C83.3615 14.555 90.9635 20.7937 96.3119 28.7982C101.66 36.8027 104.515 46.2135 104.515 55.8404C104.492 68.7426 99.3563 81.1098 90.2331 90.233C81.1098 99.3563 68.7426 104.492 55.8404 104.515Z" fill="#00A9EB"/>
<path fill-rule="evenodd" clip-rule="evenodd" d="M79.5 79C81.433 79 83 77.433 83 75.5V54.6481C83 53.6133 82.599 52.6187 81.8811 51.8733L56 25L30.1189 51.8733C29.401 52.6187 29 53.6133 29 54.6481V74C29 76.7614 31.2386 79 34 79H56.6087C58.5417 79 60.1087 77.433 60.1087 75.5V75.5C60.1087 73.567 58.5417 72 56.6087 72H37C36.4477 72 36 71.5523 36 71V57.0675C36 56.2914 36.3008 55.5455 36.8392 54.9865L55.2797 35.8389C55.6731 35.4305 56.3269 35.4305 56.7203 35.8389L75.1608 54.9865C75.6992 55.5455 76 56.2914 76 57.0675V75.5C76 77.433 77.567 79 79.5 79V79Z" fill="#00A9EB"/>
</svg>
